<svg width="400" height="400" viewBox="0 0 400 400" fill="none" xmlns="http://www.w3.org/2000/svg">
<rect x="25" y="13" width="350" height="350" rx="128" fill="#FDE8D7" stroke="#410D09" stroke-width="12"/>
<path d="M187.369 277.467C189.713 279.713 192.301 281.178 195.133 281.861C197.965 282.545 201.627 282.887 206.119 282.887C210.709 282.887 216.568 281.91 223.697 279.957L221.939 299H127.311L128.922 283.033C137.613 283.033 143.668 280.348 147.086 274.977C150.309 269.996 151.92 261.842 151.92 250.514L151.773 117.359C151.773 105.641 151.285 98.6582 150.309 96.4121C149.43 94.166 148.062 92.6523 146.207 91.8711C144.449 91.0898 141.812 90.6992 138.297 90.6992C132.926 90.6992 127.75 91.2363 122.77 92.3105L125.406 74.8789H154.996C173.551 74.8789 186.832 74.5859 194.84 74C208.609 73.1211 220.963 72.7305 231.9 72.8281C242.936 72.9258 253.189 74.6348 262.662 77.9551C272.135 81.2754 279.801 85.8652 285.66 91.7246C296.891 102.857 302.506 118.482 302.506 138.6C302.506 160.279 294.742 177.955 279.215 191.627C264.273 204.908 245.475 211.549 222.818 211.549C213.932 211.549 204.947 210.328 195.865 207.887L193.082 190.748C201.676 192.701 209.586 193.678 216.812 193.678C224.137 193.678 231.119 192.457 237.76 190.016C244.4 187.574 250.016 184.059 254.605 179.469C264.176 170.094 268.961 157.105 268.961 140.504C268.961 106.324 249.771 89.2344 211.393 89.2344C202.408 89.2344 193.277 90.1621 184 92.0176V260.768C184 269.557 185.123 275.123 187.369 277.467Z" fill="#4B2114"/>
</svg>
